<svg xmlns="http://www.w3.org/2000/svg" xmlns:xlink="http://www.w3.org/1999/xlink" contentStyleType="text/css" data-diagram-type="DESCRIPTION" height="514px" preserveAspectRatio="none" style="width:823px;height:514px;background:#FFFFFF;" version="1.1" viewBox="0 0 823 514" width="823px" zoomAndPan="magnify"><defs/><g><!--cluster Producer Network--><g class="cluster" data-entity="Producer Network" data-source-line="1" data-uid="ent0002" id="cluster_Producer Network"><rect fill="none" height="97.29" rx="2.5" ry="2.5" style="stroke:#181818;stroke-width:1;" width="334" x="7" y="283.89"/><path d="M160.0146,283.89 L160.0146,293.1869 L150.0146,303.1869 L7,303.1869" fill="none" style="stroke:#181818;stroke-width:1;"/><text fill="#000000" font-family="sans-serif" font-size="14" font-weight="bold" lengthAdjust="spacing" textLength="143.0146" x="10" y="297.8851">Producer Network</text></g><!--cluster Platform Network--><g class="cluster" data-entity="Platform Network" data-source-line="8" data-uid="ent0006" id="cluster_Platform Network"><rect fill="none" height="501.63" rx="2.5" ry="2.5" style="stroke:#181818;stroke-width:1;" width="433" x="384" y="7"/><path d="M533.9453,7 L533.9453,16.2969 L523.9453,26.2969 L384,26.2969" fill="none" style="stroke:#181818;stroke-width:1;"/><text fill="#000000" font-family="sans-serif" font-size="14" font-weight="bold" lengthAdjust="spacing" textLength="139.9453" x="387" y="20.9951">Platform Network</text></g><!--entity publisher--><g class="entity" data-entity="publisher" data-source-line="2" data-uid="ent0003" id="entity_publisher"><rect fill="#F1F1F1" height="46.2969" rx="2.5" ry="2.5" style="stroke:#181818;stroke-width:0.5;" width="102.2412" x="22.88" y="318.89"/><rect fill="#F1F1F1" height="10" style="stroke:#181818;stroke-width:0.5;" width="15" x="105.1212" y="323.89"/><rect fill="#F1F1F1" height="2" style="stroke:#181818;stroke-width:0.5;" width="4" x="103.1212" y="325.89"/><rect fill="#F1F1F1" height="2" style="stroke:#181818;stroke-width:0.5;" width="4" x="103.1212" y="329.89"/><text fill="#000000" font-family="sans-serif" font-size="14" lengthAdjust="spacing" textLength="62.2412" x="37.88" y="351.8851">Collector</text></g><!--entity redis--><g class="entity" data-entity="redis" data-source-line="3" data-uid="ent0004" id="entity_redis"><path d="M266.79,329.39 C266.79,319.39 295.9956,319.39 295.9956,319.39 C295.9956,319.39 325.2011,319.39 325.2011,329.39 L325.2011,354.6869 C325.2011,364.6869 295.9956,364.6869 295.9956,364.6869 C295.9956,364.6869 266.79,364.6869 266.79,354.6869 L266.79,329.39" fill="#F1F1F1" style="stroke:#181818;stroke-width:0.5;"/><path d="M266.79,329.39 C266.79,339.39 295.9956,339.39 295.9956,339.39 C295.9956,339.39 325.2011,339.39 325.2011,329.39" fill="none" style="stroke:#181818;stroke-width:0.5;"/><text fill="#000000" font-family="sans-serif" font-size="14" lengthAdjust="spacing" textLength="38.4111" x="276.79" y="356.3851">Redis</text></g><!--entity sensor--><g class="entity" data-entity="sensor" data-source-line="9" data-uid="ent0007" id="entity_sensor"><rect fill="#F1F1F1" height="39.2969" rx="2.5" ry="2.5" style="stroke:#181818;stroke-width:0.5;" width="77.9883" x="583.01" y="42"/><polygon fill="#F1F1F1" points="643.9983,47,643.9983,61,655.9983,61,655.9983,53,649.9983,47,643.9983,47" style="stroke:#181818;stroke-width:0.5;"/><line style="stroke:#181818;stroke-width:0.5;" x1="649.9983" x2="649.9983" y1="47" y2="53"/><line style="stroke:#181818;stroke-width:0.5;" x1="655.9983" x2="649.9983" y1="53" y2="53"/><text fill="#000000" font-family="sans-serif" font-size="14" lengthAdjust="spacing" textLength="47.9883" x="593.01" y="67.9951">Sensor</text></g><!--entity sensorc--><g class="entity" data-entity="sensorc" data-source-line="10" data-uid="ent0008" id="entity_sensorc"><rect fill="#F1F1F1" height="62.5938" rx="2.5" ry="2.5" style="stroke:#181818;stroke-width:0.5;" width="109.1729" x="567.41" y="158.29"/><rect fill="#F1F1F1" height="10" style="stroke:#181818;stroke-width:0.5;" width="15" x="656.5829" y="163.29"/><rect fill="#F1F1F1" height="2" style="stroke:#181818;stroke-width:0.5;" width="4" x="654.5829" y="165.29"/><rect fill="#F1F1F1" height="2" style="stroke:#181818;stroke-width:0.5;" width="4" x="654.5829" y="169.29"/><text fill="#000000" font-family="sans-serif" font-size="14" lengthAdjust="spacing" textLength="47.9883" x="582.41" y="191.2851">Sensor</text><text fill="#000000" font-family="sans-serif" font-size="14" lengthAdjust="spacing" textLength="69.1729" x="582.41" y="207.582">Controller</text></g><!--entity sensord--><g class="entity" data-entity="sensord" data-source-line="11" data-uid="ent0009" id="entity_sensord"><ellipse cx="569.9969" cy="325.74" fill="#F1F1F1" rx="12" ry="12" style="stroke:#181818;stroke-width:0.5;"/><polygon fill="#181818" points="565.9969,313.74,571.9969,308.74,569.9969,313.74,571.9969,318.74,565.9969,313.74" style="stroke:#181818;stroke-width:1;"/><text fill="#000000" font-family="sans-serif" font-size="14" lengthAdjust="spacing" textLength="47.9883" x="527.18" y="354.7351">Sensor</text><text fill="#000000" font-family="sans-serif" font-size="14" lengthAdjust="spacing" textLength="85.6338" x="527.18" y="371.032">Deployment</text></g><!--entity container--><g class="entity" data-entity="container" data-source-line="12" data-uid="ent0010" id="entity_container"><rect fill="#F1F1F1" height="62.5938" rx="2.5" ry="2.5" style="stroke:#181818;stroke-width:0.5;" width="105.1055" x="695.45" y="310.74"/><rect fill="#F1F1F1" height="10" style="stroke:#181818;stroke-width:0.5;" width="15" x="780.5555" y="315.74"/><rect fill="#F1F1F1" height="2" style="stroke:#181818;stroke-width:0.5;" width="4" x="778.5555" y="317.74"/><rect fill="#F1F1F1" height="2" style="stroke:#181818;stroke-width:0.5;" width="4" x="778.5555" y="321.74"/><text fill="#000000" font-family="sans-serif" font-size="14" lengthAdjust="spacing" textLength="4.4502" x="710.45" y="343.7351">&#160;</text><text fill="#000000" font-family="sans-serif" font-size="14" lengthAdjust="spacing" textLength="65.1055" x="710.45" y="360.032">Workflow</text></g><!--entity es--><g class="entity" data-entity="es" data-source-line="18" data-uid="ent0015" id="entity_es"><rect fill="#F1F1F1" height="39.2969" rx="2.5" ry="2.5" style="stroke:#181818;stroke-width:0.5;" width="122.9482" x="404.53" y="42"/><polygon fill="#F1F1F1" points="510.4782,47,510.4782,61,522.4782,61,522.4782,53,516.4782,47,510.4782,47" style="stroke:#181818;stroke-width:0.5;"/><line style="stroke:#181818;stroke-width:0.5;" x1="516.4782" x2="516.4782" y1="47" y2="53"/><line style="stroke:#181818;stroke-width:0.5;" x1="522.4782" x2="516.4782" y1="53" y2="53"/><text fill="#000000" font-family="sans-serif" font-size="14" lengthAdjust="spacing" textLength="92.9482" x="414.53" y="67.9951">Event Source</text></g><!--entity esc--><g class="entity" data-entity="esc" data-source-line="19" data-uid="ent0016" id="entity_esc"><rect fill="#F1F1F1" height="62.5938" rx="2.5" ry="2.5" style="stroke:#181818;stroke-width:0.5;" width="132.9482" x="399.53" y="158.29"/><rect fill="#F1F1F1" height="10" style="stroke:#181818;stroke-width:0.5;" width="15" x="512.4782" y="163.29"/><rect fill="#F1F1F1" height="2" style="stroke:#181818;stroke-width:0.5;" width="4" x="510.4782" y="165.29"/><rect fill="#F1F1F1" height="2" style="stroke:#181818;stroke-width:0.5;" width="4" x="510.4782" y="169.29"/><text fill="#000000" font-family="sans-serif" font-size="14" lengthAdjust="spacing" textLength="92.9482" x="414.53" y="191.2851">Event Source</text><text fill="#000000" font-family="sans-serif" font-size="14" lengthAdjust="spacing" textLength="69.1729" x="414.53" y="207.582">Controller</text></g><!--entity esd--><g class="entity" data-entity="esd" data-source-line="20" data-uid="ent0017" id="entity_esd"><ellipse cx="446.0041" cy="325.74" fill="#F1F1F1" rx="12" ry="12" style="stroke:#181818;stroke-width:0.5;"/><polygon fill="#181818" points="442.0041,313.74,448.0041,308.74,446.0041,313.74,448.0041,318.74,442.0041,313.74" style="stroke:#181818;stroke-width:1;"/><text fill="#000000" font-family="sans-serif" font-size="14" lengthAdjust="spacing" textLength="92.9482" x="399.53" y="354.7351">Event Source</text><text fill="#000000" font-family="sans-serif" font-size="14" lengthAdjust="spacing" textLength="85.6338" x="399.53" y="371.032">Deployment</text></g><!--entity evbus--><g class="entity" data-entity="evbus" data-source-line="26" data-uid="ent0023" id="entity_evbus"><path d="M457.84,466.33 L538.1681,466.33 C543.1681,466.33 543.1681,479.4784 543.1681,479.4784 C543.1681,479.4784 543.1681,492.6269 538.1681,492.6269 L457.84,492.6269 C452.84,492.6269 452.84,479.4784 452.84,479.4784 C452.84,479.4784 452.84,466.33 457.84,466.33" fill="#F1F1F1" style="stroke:#181818;stroke-width:0.5;"/><path d="M538.1681,466.33 C533.1681,466.33 533.1681,479.4784 533.1681,479.4784 C533.1681,492.6269 538.1681,492.6269 538.1681,492.6269" fill="none" style="stroke:#181818;stroke-width:0.5;"/><text fill="#000000" font-family="sans-serif" font-size="14" lengthAdjust="spacing" textLength="70.3281" x="457.84" y="484.3251">Event Bus</text></g><!--link publisher to redis--><g class="link" data-entity-1="publisher" data-entity-2="redis" data-source-line="5" data-uid="lnk5" id="link_publisher_redis"><path d="M125.49,342.04 C169.3,342.04 224.66,342.04 260.58,342.04" fill="none" id="publisher-to-redis" style="stroke:#181818;stroke-width:1;"/><polygon fill="#181818" points="266.58,342.04,257.58,338.04,261.58,342.04,257.58,346.04,266.58,342.04" style="stroke:#181818;stroke-width:1;"/><text fill="#000000" font-family="sans-serif" font-size="13" lengthAdjust="spacing" textLength="105.5933" x="143.46" y="335.1069">Add new entries</text></g><!--reverse link sensor to sensorc--><g class="link" data-entity-1="sensor" data-entity-2="sensorc" data-source-line="14" data-uid="lnk12" id="link_sensor_sensorc"><path d="M622,87.77 C622,108.01 622,134.22 622,157.99" fill="none" id="sensor-backto-sensorc" style="stroke:#181818;stroke-width:1;"/><polygon fill="#181818" points="622,81.77,618,90.77,622,86.77,626,90.77,622,81.77" style="stroke:#181818;stroke-width:1;"/><text fill="#000000" font-family="sans-serif" font-size="13" lengthAdjust="spacing" textLength="41.3042" x="623" y="124.3569">Watch</text></g><!--link sensorc to sensord--><g class="link" data-entity-1="sensorc" data-entity-2="sensord" data-source-line="15" data-uid="lnk13" id="link_sensorc_sensord"><path d="M611.48,221.04 C602.6,246.71 591.9094,277.6489 582.9194,303.6689" fill="none" id="sensorc-to-sensord" style="stroke:#181818;stroke-width:1;"/><polygon fill="#181818" points="580.96,309.34,587.6798,302.1397,582.5928,304.6141,580.1184,299.5272,580.96,309.34" style="stroke:#181818;stroke-width:1;"/><text fill="#000000" font-family="sans-serif" font-size="13" lengthAdjust="spacing" textLength="43.4814" x="601" y="263.9569">Create</text></g><!--link sensord to container--><g class="link" data-entity-1="sensord" data-entity-2="container" data-source-line="16" data-uid="lnk14" id="link_sensord_container"><path d="M613.09,342.04 C637.78,342.04 662.97,342.04 689.14,342.04" fill="none" id="sensord-to-container" style="stroke:#181818;stroke-width:1;"/><polygon fill="#181818" points="695.14,342.04,686.14,338.04,690.14,342.04,686.14,346.04,695.14,342.04" style="stroke:#181818;stroke-width:1;"/><text fill="#000000" font-family="sans-serif" font-size="13" lengthAdjust="spacing" textLength="46.7441" x="631.13" y="335.1069">Trigger</text></g><!--reverse link es to esc--><g class="link" data-entity-1="es" data-entity-2="esc" data-source-line="22" data-uid="lnk19" id="link_es_esc"><path d="M466,87.77 C466,108.01 466,134.22 466,157.99" fill="none" id="es-backto-esc" style="stroke:#181818;stroke-width:1;"/><polygon fill="#181818" points="466,81.77,462,90.77,466,86.77,470,90.77,466,81.77" style="stroke:#181818;stroke-width:1;"/><text fill="#000000" font-family="sans-serif" font-size="13" lengthAdjust="spacing" textLength="41.3042" x="467" y="124.3569">Watch</text></g><!--link esc to esd--><g class="link" data-entity-1="esc" data-entity-2="esd" data-source-line="23" data-uid="lnk20" id="link_esc_esd"><path d="M461.95,221.04 C458.54,246.71 454.4609,277.3724 451.0009,303.3924" fill="none" id="esc-to-esd" style="stroke:#181818;stroke-width:1;"/><polygon fill="#181818" points="450.21,309.34,455.3614,300.9458,450.8691,304.3836,447.4312,299.8913,450.21,309.34" style="stroke:#181818;stroke-width:1;"/><text fill="#000000" font-family="sans-serif" font-size="13" lengthAdjust="spacing" textLength="43.4814" x="458" y="263.9569">Create</text></g><!--reverse link redis to esd--><g class="link" data-entity-1="redis" data-entity-2="esd" data-source-line="24" data-uid="lnk22" id="link_redis_esd"><path d="M331.64,342.04 C352.64,342.04 375.25,342.04 399.3,342.04" fill="none" id="redis-backto-esd" style="stroke:#181818;stroke-width:1;"/><polygon fill="#181818" points="325.64,342.04,334.64,346.04,330.64,342.04,334.64,338.04,325.64,342.04" style="stroke:#181818;stroke-width:1;"/><text fill="#000000" font-family="sans-serif" font-size="13" lengthAdjust="spacing" textLength="38.9619" x="343.37" y="358.1069">Listen</text></g><!--link esd to evbus--><g class="link" data-entity-1="esd" data-entity-2="evbus" data-source-line="28" data-uid="lnk24" id="link_esd_evbus"><path d="M451.9,374.53 C455.98,393.01 462.26,416.54 471,436.33 C475.7,446.99 479.4045,453.1391 485.1745,461.2591" fill="none" id="esd-to-evbus" style="stroke:#181818;stroke-width:1;"/><polygon fill="#181818" points="488.65,466.15,486.6974,456.4966,485.7538,462.0742,480.1762,461.1306,488.65,466.15" style="stroke:#181818;stroke-width:1;"/><text fill="#000000" font-family="sans-serif" font-size="13" lengthAdjust="spacing" textLength="34.9058" x="476.5544" y="417.3969">Write</text><text fill="#000000" font-family="sans-serif" font-size="13" lengthAdjust="spacing" textLength="44.0146" x="472" y="432.5297">Events</text></g><!--reverse link sensord to evbus--><g class="link" data-entity-1="sensord" data-entity-2="evbus" data-source-line="29" data-uid="lnk26" id="link_sensord_evbus"><path d="M550.7908,379.9475 C541.3308,398.0475 531.97,415.85 521,436.33 C515.65,446.33 509.49,457.6 504.9,465.97" fill="none" id="sensord-backto-evbus" style="stroke:#181818;stroke-width:1;"/><polygon fill="#181818" points="553.57,374.63,545.8562,380.7535,551.254,379.0613,552.9462,384.4591,553.57,374.63" style="stroke:#181818;stroke-width:1;"/><text fill="#000000" font-family="sans-serif" font-size="13" lengthAdjust="spacing" textLength="33.249" x="543.3828" y="417.3969">Read</text><text fill="#000000" font-family="sans-serif" font-size="13" lengthAdjust="spacing" textLength="44.0146" x="538" y="432.5297">Events</text></g><!--SRC=[PLB1JWCX5Bo_ho0Rh_i3nZJHwisOfZNffHSARriY2_K1ROpfl_k0TejwWvbXtipR7KYEABe5UPqKadZ3UFBqqOblK7uyU8SkYcxkhKKLFNL21d58Msl27WcqZ78h0niiKPjGMCedW4aaUkfd5HNtub5huV0as9OC1ZW339S8LiR1qzX6a1JD81KdMA4Bb_6X7DjubToukMVN7BKLAbOM-APxneFrNoE_RNIwTNouSrxZREFMd6Im_bI4sKWQnyNXuYtwnENgXTkjPLJx6wSdJZCv9vGHuGgKjKoEpB-JsUsozwtrop6dMVb42ai2tbYJigN_jSVGDF-j_DCVWmPWUIs3OIfIC5smfa2-zBRvfgycH7G0dmaJNcSzfVexu76R0jH7nIhVymGoaQCKSO2ADilCyvOezQGu_m00]--></g></svg>