<svg xmlns="http://www.w3.org/2000/svg" xmlns:xlink="http://www.w3.org/1999/xlink" contentStyleType="text/css" data-diagram-type="SEQUENCE" height="304px" preserveAspectRatio="none" style="width:672px;height:304px;background:#FFFFFF;" version="1.1" viewBox="0 0 672 304" width="672px" zoomAndPan="magnify"><defs/><g><g><title>Event Source</title><rect fill="#FFFFFF" height="149.6641" style="stroke:#181818;stroke-width:1;" width="10" x="68.4741" y="79.5938"/></g><g><title>Event Source</title><rect fill="#FFFFFF" height="149.6641" style="stroke:#181818;stroke-width:1;" width="10" x="185.4224" y="79.5938"/></g><g><title>Event Source</title><rect fill="#FFFFFF" height="75.2656" style="stroke:#181818;stroke-width:1;" width="10" x="298.3706" y="153.9922"/></g><g><title>Sensor</title><rect fill="#FFFFFF" height="149.6641" style="stroke:#181818;stroke-width:1;" width="10" x="388.8389" y="79.5938"/></g><g><title>Sensor</title><rect fill="#FFFFFF" height="149.6641" style="stroke:#181818;stroke-width:1;" width="10" x="498.1167" y="79.5938"/></g><g><title>Sensor</title><rect fill="#FFFFFF" height="15" style="stroke:#181818;stroke-width:1;" width="10" x="604.5718" y="214.2578"/></g><rect fill="none" height="135.6641" style="stroke:#000000;stroke-width:1.5;" width="655.3887" x="10" y="86.5938"/><g><title>Event Source</title><rect fill="#000000" fill-opacity="0.00000" height="169.6641" width="8" x="69.4741" y="69.5938"/><line style="stroke:#181818;stroke-width:0.5;stroke-dasharray:5.0,5.0;" x1="73" x2="73" y1="69.5938" y2="239.2578"/></g><g><title>Event Source</title><rect fill="#000000" fill-opacity="0.00000" height="169.6641" width="8" x="186.4224" y="69.5938"/><line style="stroke:#181818;stroke-width:0.5;stroke-dasharray:5.0,5.0;" x1="189.9482" x2="189.9482" y1="69.5938" y2="239.2578"/></g><g><title>Event Source</title><rect fill="#000000" fill-opacity="0.00000" height="169.6641" width="8" x="299.3706" y="69.5938"/><line style="stroke:#181818;stroke-width:0.5;stroke-dasharray:5.0,5.0;" x1="302.8965" x2="302.8965" y1="69.5938" y2="239.2578"/></g><g><title>Sensor</title><rect fill="#000000" fill-opacity="0.00000" height="169.6641" width="8" x="389.8389" y="69.5938"/><line style="stroke:#181818;stroke-width:0.5;stroke-dasharray:5.0,5.0;" x1="392.8447" x2="392.8447" y1="69.5938" y2="239.2578"/></g><g><title>Sensor</title><rect fill="#000000" fill-opacity="0.00000" height="169.6641" width="8" x="499.1167" y="69.5938"/><line style="stroke:#181818;stroke-width:0.5;stroke-dasharray:5.0,5.0;" x1="502.5303" x2="502.5303" y1="69.5938" y2="239.2578"/></g><g><title>Sensor</title><rect fill="#000000" fill-opacity="0.00000" height="169.6641" width="8" x="605.5718" y="69.5938"/><line style="stroke:#181818;stroke-width:0.5;stroke-dasharray:5.0,5.0;" x1="608.7549" x2="608.7549" y1="69.5938" y2="239.2578"/></g><g class="participant participant-head" data-participant="es"><rect fill="#E2E2F0" height="30.2969" rx="2.5" ry="2.5" style="stroke:#181818;stroke-width:0.5;" width="106.9482" x="20" y="38.2969"/><text fill="#000000" font-family="sans-serif" font-size="14" lengthAdjust="spacing" textLength="92.9482" x="27" y="58.292">Event Source</text></g><g class="participant participant-tail" data-participant="es"><rect fill="#E2E2F0" height="30.2969" rx="2.5" ry="2.5" style="stroke:#181818;stroke-width:0.5;" width="106.9482" x="20" y="238.2578"/><text fill="#000000" font-family="sans-serif" font-size="14" lengthAdjust="spacing" textLength="92.9482" x="27" y="258.2529">Event Source</text></g><g class="participant participant-head" data-participant="esc"><rect fill="#E2E2F0" height="46.5938" rx="2.5" ry="2.5" style="stroke:#181818;stroke-width:0.5;" width="106.9482" x="136.9482" y="22"/><text fill="#000000" font-family="sans-serif" font-size="14" lengthAdjust="spacing" textLength="92.9482" x="143.9482" y="41.9951">Event Source</text><text fill="#000000" font-family="sans-serif" font-size="14" lengthAdjust="spacing" textLength="69.1729" x="155.8359" y="58.292">Controller</text></g><g class="participant participant-tail" data-participant="esc"><rect fill="#E2E2F0" height="46.5938" rx="2.5" ry="2.5" style="stroke:#181818;stroke-width:0.5;" width="106.9482" x="136.9482" y="238.2578"/><text fill="#000000" font-family="sans-serif" font-size="14" lengthAdjust="spacing" textLength="92.9482" x="143.9482" y="258.2529">Event Source</text><text fill="#000000" font-family="sans-serif" font-size="14" lengthAdjust="spacing" textLength="69.1729" x="155.8359" y="274.5498">Controller</text></g><g class="participant participant-head" data-participant="esd"><text fill="#000000" font-family="sans-serif" font-size="14" lengthAdjust="spacing" textLength="92.9482" x="253.8965" y="49.9951">Event Source</text><text fill="#000000" font-family="sans-serif" font-size="14" lengthAdjust="spacing" textLength="85.6338" x="257.5537" y="66.292">Deployment</text><ellipse cx="303.3706" cy="21" fill="#E2E2F0" rx="12" ry="12" style="stroke:#181818;stroke-width:0.5;"/><polygon fill="#181818" points="299.3706,9,305.3706,4,303.3706,9,305.3706,14,299.3706,9" style="stroke:#181818;stroke-width:1;"/></g><g class="participant participant-tail" data-participant="esd"><text fill="#000000" font-family="sans-serif" font-size="14" lengthAdjust="spacing" textLength="92.9482" x="253.8965" y="251.2529">Event Source</text><text fill="#000000" font-family="sans-serif" font-size="14" lengthAdjust="spacing" textLength="85.6338" x="257.5537" y="267.5498">Deployment</text><ellipse cx="303.3706" cy="286.8516" fill="#E2E2F0" rx="12" ry="12" style="stroke:#181818;stroke-width:0.5;"/><polygon fill="#181818" points="299.3706,274.8516,305.3706,269.8516,303.3706,274.8516,305.3706,279.8516,299.3706,274.8516" style="stroke:#181818;stroke-width:1;"/></g><g class="participant participant-head" data-participant="sensor"><rect fill="#E2E2F0" height="30.2969" rx="2.5" ry="2.5" style="stroke:#181818;stroke-width:0.5;" width="61.9883" x="362.8447" y="38.2969"/><text fill="#000000" font-family="sans-serif" font-size="14" lengthAdjust="spacing" textLength="47.9883" x="369.8447" y="58.292">Sensor</text></g><g class="participant participant-tail" data-participant="sensor"><rect fill="#E2E2F0" height="30.2969" rx="2.5" ry="2.5" style="stroke:#181818;stroke-width:0.5;" width="61.9883" x="362.8447" y="238.2578"/><text fill="#000000" font-family="sans-serif" font-size="14" lengthAdjust="spacing" textLength="47.9883" x="369.8447" y="258.2529">Sensor</text></g><g class="participant participant-head" data-participant="sensorc"><rect fill="#E2E2F0" height="46.5938" rx="2.5" ry="2.5" style="stroke:#181818;stroke-width:0.5;" width="83.1729" x="461.5303" y="22"/><text fill="#000000" font-family="sans-serif" font-size="14" lengthAdjust="spacing" textLength="47.9883" x="479.1226" y="41.9951">Sensor</text><text fill="#000000" font-family="sans-serif" font-size="14" lengthAdjust="spacing" textLength="69.1729" x="468.5303" y="58.292">Controller</text></g><g class="participant participant-tail" data-participant="sensorc"><rect fill="#E2E2F0" height="46.5938" rx="2.5" ry="2.5" style="stroke:#181818;stroke-width:0.5;" width="83.1729" x="461.5303" y="238.2578"/><text fill="#000000" font-family="sans-serif" font-size="14" lengthAdjust="spacing" textLength="47.9883" x="479.1226" y="258.2529">Sensor</text><text fill="#000000" font-family="sans-serif" font-size="14" lengthAdjust="spacing" textLength="69.1729" x="468.5303" y="274.5498">Controller</text></g><g class="participant participant-head" data-participant="sensord"><text fill="#000000" font-family="sans-serif" font-size="14" lengthAdjust="spacing" textLength="47.9883" x="582.5776" y="49.9951">Sensor</text><text fill="#000000" font-family="sans-serif" font-size="14" lengthAdjust="spacing" textLength="85.6338" x="563.7549" y="66.292">Deployment</text><ellipse cx="609.5718" cy="21" fill="#E2E2F0" rx="12" ry="12" style="stroke:#181818;stroke-width:0.5;"/><polygon fill="#181818" points="605.5718,9,611.5718,4,609.5718,9,611.5718,14,605.5718,9" style="stroke:#181818;stroke-width:1;"/></g><g class="participant participant-tail" data-participant="sensord"><text fill="#000000" font-family="sans-serif" font-size="14" lengthAdjust="spacing" textLength="47.9883" x="582.5776" y="251.2529">Sensor</text><text fill="#000000" font-family="sans-serif" font-size="14" lengthAdjust="spacing" textLength="85.6338" x="563.7549" y="267.5498">Deployment</text><ellipse cx="609.5718" cy="286.8516" fill="#E2E2F0" rx="12" ry="12" style="stroke:#181818;stroke-width:0.5;"/><polygon fill="#181818" points="605.5718,274.8516,611.5718,269.8516,609.5718,274.8516,611.5718,279.8516,605.5718,274.8516" style="stroke:#181818;stroke-width:1;"/></g><g><title>Event Source</title><rect fill="#FFFFFF" height="149.6641" style="stroke:#181818;stroke-width:1;" width="10" x="68.4741" y="79.5938"/></g><g><title>Event Source</title><rect fill="#FFFFFF" height="149.6641" style="stroke:#181818;stroke-width:1;" width="10" x="185.4224" y="79.5938"/></g><g><title>Event Source</title><rect fill="#FFFFFF" height="75.2656" style="stroke:#181818;stroke-width:1;" width="10" x="298.3706" y="153.9922"/></g><g><title>Sensor</title><rect fill="#FFFFFF" height="149.6641" style="stroke:#181818;stroke-width:1;" width="10" x="388.8389" y="79.5938"/></g><g><title>Sensor</title><rect fill="#FFFFFF" height="149.6641" style="stroke:#181818;stroke-width:1;" width="10" x="498.1167" y="79.5938"/></g><g><title>Sensor</title><rect fill="#FFFFFF" height="15" style="stroke:#181818;stroke-width:1;" width="10" x="604.5718" y="214.2578"/></g><path d="M10,86.5938 L79.4893,86.5938 L79.4893,93.7266 L69.4893,103.7266 L10,103.7266 L10,86.5938" fill="#EEEEEE" style="stroke:#000000;stroke-width:1.5;"/><rect fill="none" height="135.6641" style="stroke:#000000;stroke-width:1.5;" width="655.3887" x="10" y="86.5938"/><text fill="#000000" font-family="sans-serif" font-size="13" font-weight="bold" lengthAdjust="spacing" textLength="24.4893" x="25" y="99.6606">par</text><text fill="#000000" font-family="sans-serif" font-size="11" font-weight="bold" lengthAdjust="spacing" textLength="193.4883" x="94.4893" y="98.8042">[actions occur asynchronously]</text><g class="message" data-participant-1="esc" data-participant-2="es"><polygon fill="#181818" points="89.4741,120.8594,79.4741,124.8594,89.4741,128.8594,85.4741,124.8594" style="stroke:#181818;stroke-width:1;"/><line style="stroke:#181818;stroke-width:1;" x1="83.4741" x2="184.4224" y1="124.8594" y2="124.8594"/><text fill="#000000" font-family="sans-serif" font-size="13" font-weight="bold" lengthAdjust="spacing" textLength="29.9736" x="95.4741" y="119.7935">[01]</text><text fill="#000000" font-family="sans-serif" font-size="13" lengthAdjust="spacing" textLength="41.3042" x="129.4478" y="119.7935">Watch</text></g><g class="message" data-participant-1="esc" data-participant-2="esd"><polygon fill="#181818" points="286.3706,149.9922,296.3706,153.9922,286.3706,157.9922,290.3706,153.9922" style="stroke:#181818;stroke-width:1;"/><line style="stroke:#181818;stroke-width:1;" x1="195.4224" x2="292.3706" y1="153.9922" y2="153.9922"/><text fill="#000000" font-family="sans-serif" font-size="13" font-weight="bold" lengthAdjust="spacing" textLength="29.9736" x="202.4224" y="148.9263">[02]</text><text fill="#000000" font-family="sans-serif" font-size="13" lengthAdjust="spacing" textLength="43.4814" x="236.396" y="148.9263">Create</text></g><line style="stroke:#000000;stroke-width:1;stroke-dasharray:2.0,2.0;" x1="10" x2="665.3887" y1="162.9922" y2="162.9922"/><g class="message" data-participant-1="sensorc" data-participant-2="sensor"><polygon fill="#181818" points="409.8389,181.125,399.8389,185.125,409.8389,189.125,405.8389,185.125" style="stroke:#181818;stroke-width:1;"/><line style="stroke:#181818;stroke-width:1;" x1="403.8389" x2="497.1167" y1="185.125" y2="185.125"/><text fill="#000000" font-family="sans-serif" font-size="13" font-weight="bold" lengthAdjust="spacing" textLength="29.9736" x="415.8389" y="180.0591">[03]</text><text fill="#000000" font-family="sans-serif" font-size="13" lengthAdjust="spacing" textLength="41.3042" x="449.8125" y="180.0591">Watch</text></g><g class="message" data-participant-1="sensorc" data-participant-2="sensord"><polygon fill="#181818" points="592.5718,210.2578,602.5718,214.2578,592.5718,218.2578,596.5718,214.2578" style="stroke:#181818;stroke-width:1;"/><line style="stroke:#181818;stroke-width:1;" x1="508.1167" x2="598.5718" y1="214.2578" y2="214.2578"/><text fill="#000000" font-family="sans-serif" font-size="13" font-weight="bold" lengthAdjust="spacing" textLength="29.9736" x="515.1167" y="209.1919">[04]</text><text fill="#000000" font-family="sans-serif" font-size="13" lengthAdjust="spacing" textLength="43.4814" x="549.0903" y="209.1919">Create</text></g><!--SRC=[TK-xZW8n3Epp5TQsw2Jg4wBXxWiehhYx8ZYMM2dOgpoGzk_naW1B5gfunkEPZCr9E9yE5A3R7BQ_w_L_PynWG-gn7omdwBxFfCzUSa3gm4QW-5xmnplX5CHx2bMC1WlLAhzey3AUbAfAroJlYQCKctWTNwqNYKKwIxtfchoYqqoBgJ_RH5EnsOmFKDCRZDVlmiGAHn34h2YEZCSWB3dwqQWDV6pL3JxXnoOyFXW7gvMokq1gQSX7CjLtsfVnVhNODDUiFHpDcpmXV8Pk3ckv1ODBobq0]--></g></svg>