<svg xmlns="http://www.w3.org/2000/svg" xmlns:xlink="http://www.w3.org/1999/xlink" contentStyleType="text/css" data-diagram-type="SEQUENCE" height="533px" preserveAspectRatio="none" style="width:1173px;height:533px;background:#FFFFFF;" version="1.1" viewBox="0 0 1173 533" width="1173px" zoomAndPan="magnify"><defs/><g><rect fill="#DDDDDD" height="516.4531" style="stroke:#181818;stroke-width:0.5;" width="395.6714" x="16" y="6"/><text fill="#000000" font-family="sans-serif" font-size="13" font-weight="bold" lengthAdjust="spacing" textLength="132.7993" x="147.436" y="18.0669">Producer Network</text><rect fill="#FFFFFF" height="516.4531" style="stroke:#181818;stroke-width:0.5;" width="644.3154" x="438.9272" y="6"/><text fill="#000000" font-family="sans-serif" font-size="13" font-weight="bold" lengthAdjust="spacing" textLength="129.9492" x="696.1104" y="18.0669">Platform Network</text><g><title>Collector</title><rect fill="#FFFFFF" height="345.1328" style="stroke:#181818;stroke-width:1;" width="10" x="53.1206" y="99.7266"/></g><g><title>Redis</title><rect fill="#FFFFFF" height="345.1328" style="stroke:#181818;stroke-width:1;" width="10" x="380.4658" y="99.7266"/></g><g><title>Event Source</title><rect fill="#FFFFFF" height="345.1328" style="stroke:#181818;stroke-width:1;" width="10" x="487.4014" y="99.7266"/></g><g><title>Sensor</title><rect fill="#FFFFFF" height="345.1328" style="stroke:#181818;stroke-width:1;" width="10" x="592.6924" y="99.7266"/></g><g><title>Event Bus</title><rect fill="#FFFFFF" height="345.1328" style="stroke:#181818;stroke-width:1;" width="10" x="939.9731" y="99.7266"/></g><g><title>..node.</title><rect fill="#FFFFFF" height="154.3359" style="stroke:#181818;stroke-width:1;" width="10" x="1034.6899" y="265.5234"/></g><rect fill="none" height="331.1328" style="stroke:#000000;stroke-width:1.5;" width="1156.9443" x="10" y="106.7266"/><rect fill="none" height="90.2031" style="stroke:#000000;stroke-width:1.5;" width="735.9824" x="353.2603" y="322.6563"/><g><title>Collector</title><rect fill="#000000" fill-opacity="0.00000" height="365.1328" width="8" x="54.1206" y="89.7266"/><line style="stroke:#181818;stroke-width:0.5;stroke-dasharray:5.0,5.0;" x1="58" x2="58" y1="89.7266" y2="454.8594"/></g><g><title>Redis</title><rect fill="#000000" fill-opacity="0.00000" height="365.1328" width="8" x="381.4658" y="89.7266"/><line style="stroke:#181818;stroke-width:0.5;stroke-dasharray:5.0,5.0;" x1="385.2603" x2="385.2603" y1="89.7266" y2="454.8594"/></g><g><title>Event Source</title><rect fill="#000000" fill-opacity="0.00000" height="365.1328" width="8" x="488.4014" y="89.7266"/><line style="stroke:#181818;stroke-width:0.5;stroke-dasharray:5.0,5.0;" x1="491.9272" x2="491.9272" y1="89.7266" y2="454.8594"/></g><g><title>Sensor</title><rect fill="#000000" fill-opacity="0.00000" height="365.1328" width="8" x="593.6924" y="89.7266"/><line style="stroke:#181818;stroke-width:0.5;stroke-dasharray:5.0,5.0;" x1="596.8755" x2="596.8755" y1="89.7266" y2="454.8594"/></g><g><title>Event Bus</title><rect fill="#000000" fill-opacity="0.00000" height="365.1328" width="8" x="940.9731" y="89.7266"/><line style="stroke:#181818;stroke-width:0.5;stroke-dasharray:5.0,5.0;" x1="944.8091" x2="944.8091" y1="89.7266" y2="454.8594"/></g><g><title>..node.</title><rect fill="#000000" fill-opacity="0.00000" height="365.1328" width="8" x="1035.6899" y="89.7266"/><line style="stroke:#181818;stroke-width:0.5;stroke-dasharray:5.0,5.0;" x1="1039.1372" x2="1039.1372" y1="89.7266" y2="454.8594"/></g><g class="participant participant-head" data-participant="publisher"><rect fill="#E2E2F0" height="30.2969" rx="2.5" ry="2.5" style="stroke:#181818;stroke-width:0.5;" width="76.2412" x="20" y="58.4297"/><text fill="#000000" font-family="sans-serif" font-size="14" lengthAdjust="spacing" textLength="62.2412" x="27" y="78.4248">Collector</text></g><g class="participant participant-tail" data-participant="publisher"><rect fill="#E2E2F0" height="30.2969" rx="2.5" ry="2.5" style="stroke:#181818;stroke-width:0.5;" width="76.2412" x="20" y="453.8594"/><text fill="#000000" font-family="sans-serif" font-size="14" lengthAdjust="spacing" textLength="62.2412" x="27" y="473.8545">Collector</text></g><g class="participant participant-head" data-participant="redis"><text fill="#000000" font-family="sans-serif" font-size="14" lengthAdjust="spacing" textLength="38.4111" x="363.2603" y="86.4248">Redis</text><path d="M367.4658,37.4297 C367.4658,27.4297 385.4658,27.4297 385.4658,27.4297 C385.4658,27.4297 403.4658,27.4297 403.4658,37.4297 L403.4658,63.4297 C403.4658,73.4297 385.4658,73.4297 385.4658,73.4297 C385.4658,73.4297 367.4658,73.4297 367.4658,63.4297 L367.4658,37.4297" fill="#E2E2F0" style="stroke:#181818;stroke-width:1.5;"/><path d="M367.4658,37.4297 C367.4658,47.4297 385.4658,47.4297 385.4658,47.4297 C385.4658,47.4297 403.4658,47.4297 403.4658,37.4297" fill="none" style="stroke:#181818;stroke-width:1.5;"/></g><g class="participant participant-tail" data-participant="redis"><text fill="#000000" font-family="sans-serif" font-size="14" lengthAdjust="spacing" textLength="38.4111" x="363.2603" y="466.8545">Redis</text><path d="M367.4658,480.1563 C367.4658,470.1563 385.4658,470.1563 385.4658,470.1563 C385.4658,470.1563 403.4658,470.1563 403.4658,480.1563 L403.4658,506.1563 C403.4658,516.1563 385.4658,516.1563 385.4658,516.1563 C385.4658,516.1563 367.4658,516.1563 367.4658,506.1563 L367.4658,480.1563" fill="#E2E2F0" style="stroke:#181818;stroke-width:1.5;"/><path d="M367.4658,480.1563 C367.4658,490.1563 385.4658,490.1563 385.4658,490.1563 C385.4658,490.1563 403.4658,490.1563 403.4658,480.1563" fill="none" style="stroke:#181818;stroke-width:1.5;"/></g><g class="participant participant-head" data-participant="esd"><text fill="#000000" font-family="sans-serif" font-size="14" lengthAdjust="spacing" textLength="92.9482" x="442.9272" y="70.1279">Event Source</text><text fill="#000000" font-family="sans-serif" font-size="14" lengthAdjust="spacing" textLength="85.6338" x="446.5845" y="86.4248">Deployment</text><ellipse cx="492.4014" cy="41.1328" fill="#E2E2F0" rx="12" ry="12" style="stroke:#181818;stroke-width:0.5;"/><polygon fill="#181818" points="488.4014,29.1328,494.4014,24.1328,492.4014,29.1328,494.4014,34.1328,488.4014,29.1328" style="stroke:#181818;stroke-width:1;"/></g><g class="participant participant-tail" data-participant="esd"><text fill="#000000" font-family="sans-serif" font-size="14" lengthAdjust="spacing" textLength="92.9482" x="442.9272" y="466.8545">Event Source</text><text fill="#000000" font-family="sans-serif" font-size="14" lengthAdjust="spacing" textLength="85.6338" x="446.5845" y="483.1514">Deployment</text><ellipse cx="492.4014" cy="502.4531" fill="#E2E2F0" rx="12" ry="12" style="stroke:#181818;stroke-width:0.5;"/><polygon fill="#181818" points="488.4014,490.4531,494.4014,485.4531,492.4014,490.4531,494.4014,495.4531,488.4014,490.4531" style="stroke:#181818;stroke-width:1;"/></g><g class="participant participant-head" data-participant="sensord"><text fill="#000000" font-family="sans-serif" font-size="14" lengthAdjust="spacing" textLength="47.9883" x="570.6982" y="70.1279">Sensor</text><text fill="#000000" font-family="sans-serif" font-size="14" lengthAdjust="spacing" textLength="85.6338" x="551.8755" y="86.4248">Deployment</text><ellipse cx="597.6924" cy="41.1328" fill="#E2E2F0" rx="12" ry="12" style="stroke:#181818;stroke-width:0.5;"/><polygon fill="#181818" points="593.6924,29.1328,599.6924,24.1328,597.6924,29.1328,599.6924,34.1328,593.6924,29.1328" style="stroke:#181818;stroke-width:1;"/></g><g class="participant participant-tail" data-participant="sensord"><text fill="#000000" font-family="sans-serif" font-size="14" lengthAdjust="spacing" textLength="47.9883" x="570.6982" y="466.8545">Sensor</text><text fill="#000000" font-family="sans-serif" font-size="14" lengthAdjust="spacing" textLength="85.6338" x="551.8755" y="483.1514">Deployment</text><ellipse cx="597.6924" cy="502.4531" fill="#E2E2F0" rx="12" ry="12" style="stroke:#181818;stroke-width:0.5;"/><polygon fill="#181818" points="593.6924,490.4531,599.6924,485.4531,597.6924,490.4531,599.6924,495.4531,593.6924,490.4531" style="stroke:#181818;stroke-width:1;"/></g><g class="participant participant-head" data-participant="evbus"><path d="M904.8091,63.4297 L985.1372,63.4297 C990.1372,63.4297 990.1372,76.5781 990.1372,76.5781 C990.1372,76.5781 990.1372,89.7266 985.1372,89.7266 L904.8091,89.7266 C899.8091,89.7266 899.8091,76.5781 899.8091,76.5781 C899.8091,76.5781 899.8091,63.4297 904.8091,63.4297" fill="#E2E2F0" style="stroke:#181818;stroke-width:0.5;"/><path d="M985.1372,63.4297 C980.1372,63.4297 980.1372,76.5781 980.1372,76.5781 C980.1372,89.7266 985.1372,89.7266 985.1372,89.7266" fill="none" style="stroke:#181818;stroke-width:0.5;"/><text fill="#000000" font-family="sans-serif" font-size="14" lengthAdjust="spacing" textLength="70.3281" x="904.8091" y="81.4248">Event Bus</text></g><g class="participant participant-tail" data-participant="evbus"><path d="M904.8091,453.8594 L985.1372,453.8594 C990.1372,453.8594 990.1372,467.0078 990.1372,467.0078 C990.1372,467.0078 990.1372,480.1563 985.1372,480.1563 L904.8091,480.1563 C899.8091,480.1563 899.8091,467.0078 899.8091,467.0078 C899.8091,467.0078 899.8091,453.8594 904.8091,453.8594" fill="#E2E2F0" style="stroke:#181818;stroke-width:0.5;"/><path d="M985.1372,453.8594 C980.1372,453.8594 980.1372,467.0078 980.1372,467.0078 C980.1372,480.1563 985.1372,480.1563 985.1372,480.1563" fill="none" style="stroke:#181818;stroke-width:0.5;"/><text fill="#000000" font-family="sans-serif" font-size="14" lengthAdjust="spacing" textLength="70.3281" x="904.8091" y="471.8545">Event Bus</text></g><g class="participant participant-head" data-participant="container"><rect fill="#E2E2F0" height="46.5938" rx="2.5" ry="2.5" style="stroke:#181818;stroke-width:0.5;" width="79.1055" x="1000.1372" y="42.1328"/><text fill="#000000" font-family="sans-serif" font-size="14" lengthAdjust="spacing" textLength="4.4502" x="1037.4648" y="62.1279">&#160;</text><text fill="#000000" font-family="sans-serif" font-size="14" lengthAdjust="spacing" textLength="65.1055" x="1007.1372" y="78.4248">Workflow</text></g><g class="participant participant-tail" data-participant="container"><rect fill="#E2E2F0" height="46.5938" rx="2.5" ry="2.5" style="stroke:#181818;stroke-width:0.5;" width="79.1055" x="1000.1372" y="453.8594"/><text fill="#000000" font-family="sans-serif" font-size="14" lengthAdjust="spacing" textLength="4.4502" x="1037.4648" y="473.8545">&#160;</text><text fill="#000000" font-family="sans-serif" font-size="14" lengthAdjust="spacing" textLength="65.1055" x="1007.1372" y="490.1514">Workflow</text></g><g><title>Collector</title><rect fill="#FFFFFF" height="345.1328" style="stroke:#181818;stroke-width:1;" width="10" x="53.1206" y="99.7266"/></g><g><title>Redis</title><rect fill="#FFFFFF" height="345.1328" style="stroke:#181818;stroke-width:1;" width="10" x="380.4658" y="99.7266"/></g><g><title>Event Source</title><rect fill="#FFFFFF" height="345.1328" style="stroke:#181818;stroke-width:1;" width="10" x="487.4014" y="99.7266"/></g><g><title>Sensor</title><rect fill="#FFFFFF" height="345.1328" style="stroke:#181818;stroke-width:1;" width="10" x="592.6924" y="99.7266"/></g><g><title>Event Bus</title><rect fill="#FFFFFF" height="345.1328" style="stroke:#181818;stroke-width:1;" width="10" x="939.9731" y="99.7266"/></g><g><title>..node.</title><rect fill="#FFFFFF" height="154.3359" style="stroke:#181818;stroke-width:1;" width="10" x="1034.6899" y="265.5234"/></g><path d="M10,106.7266 L79.4893,106.7266 L79.4893,113.8594 L69.4893,123.8594 L10,123.8594 L10,106.7266" fill="#EEEEEE" style="stroke:#000000;stroke-width:1.5;"/><rect fill="none" height="331.1328" style="stroke:#000000;stroke-width:1.5;" width="1156.9443" x="10" y="106.7266"/><text fill="#000000" font-family="sans-serif" font-size="13" font-weight="bold" lengthAdjust="spacing" textLength="24.4893" x="25" y="119.7935">par</text><text fill="#000000" font-family="sans-serif" font-size="11" font-weight="bold" lengthAdjust="spacing" textLength="193.4883" x="94.4893" y="118.937">[actions occur asynchronously]</text><g class="message" data-participant-1="publisher" data-participant-2="redis"><polygon fill="#181818" points="368.4658,140.9922,378.4658,144.9922,368.4658,148.9922,372.4658,144.9922" style="stroke:#181818;stroke-width:1;"/><line style="stroke:#181818;stroke-width:1;" x1="63.1206" x2="374.4658" y1="144.9922" y2="144.9922"/><text fill="#000000" font-family="sans-serif" font-size="13" font-weight="bold" lengthAdjust="spacing" textLength="29.9736" x="70.1206" y="139.9263">[01]</text><text fill="#000000" font-family="sans-serif" font-size="13" lengthAdjust="spacing" textLength="34.9058" x="104.0942" y="139.9263">Write</text><text fill="#000000" font-family="monospace" font-size="13" lengthAdjust="spacing" textLength="172.1865" x="143.1323" y="139.9263">sentinel-2&#160;acquisition</text><text fill="#000000" font-family="sans-serif" font-size="13" lengthAdjust="spacing" textLength="44.0146" x="319.4512" y="139.9263">Events</text></g><line style="stroke:#000000;stroke-width:1;stroke-dasharray:2.0,2.0;" x1="10" x2="1166.9443" y1="153.9922" y2="153.9922"/><g class="message" data-participant-1="esd" data-participant-2="redis"><ellipse cx="389.9658" cy="175.375" fill="#000000" rx="4" ry="4" style="stroke:#181818;stroke-width:1.5;"/><polygon fill="#181818" points="406.9658,172.125,396.9658,176.125,406.9658,180.125,402.9658,176.125" style="stroke:#181818;stroke-width:1;"/><line style="stroke:#181818;stroke-width:1;" x1="400.9658" x2="486.4014" y1="176.125" y2="176.125"/><text fill="#000000" font-family="sans-serif" font-size="13" font-weight="bold" lengthAdjust="spacing" textLength="29.9736" x="407.4658" y="171.0591">[02]</text><text fill="#000000" font-family="sans-serif" font-size="13" lengthAdjust="spacing" textLength="38.9619" x="441.4395" y="171.0591">Listen</text></g><g class="message" data-participant-1="esd" data-participant-2="evbus"><polygon fill="#181818" points="927.9731,201.2578,937.9731,205.2578,927.9731,209.2578,931.9731,205.2578" style="stroke:#181818;stroke-width:1;"/><line style="stroke:#181818;stroke-width:1;" x1="497.4014" x2="933.9731" y1="205.2578" y2="205.2578"/><text fill="#000000" font-family="sans-serif" font-size="13" font-weight="bold" lengthAdjust="spacing" textLength="29.9736" x="504.4014" y="200.1919">[03]</text><text fill="#000000" font-family="sans-serif" font-size="13" lengthAdjust="spacing" textLength="34.9058" x="538.375" y="200.1919">Write</text><text fill="#000000" font-family="monospace" font-size="13" lengthAdjust="spacing" textLength="297.4131" x="577.4131" y="200.1919">acme-sentinel2-stream-source-collected</text><text fill="#000000" font-family="sans-serif" font-size="13" lengthAdjust="spacing" textLength="44.0146" x="878.9585" y="200.1919">Events</text></g><line style="stroke:#000000;stroke-width:1;stroke-dasharray:2.0,2.0;" x1="10" x2="1166.9443" y1="214.2578" y2="214.2578"/><g class="message" data-participant-1="sensord" data-participant-2="evbus"><ellipse cx="939.4731" cy="235.6406" fill="#000000" rx="4" ry="4" style="stroke:#181818;stroke-width:1.5;"/><polygon fill="#181818" points="922.4731,232.3906,932.4731,236.3906,922.4731,240.3906,926.4731,236.3906" style="stroke:#181818;stroke-width:1;"/><line style="stroke:#181818;stroke-width:1;" x1="602.6924" x2="928.4731" y1="236.3906" y2="236.3906"/><text fill="#000000" font-family="sans-serif" font-size="13" font-weight="bold" lengthAdjust="spacing" textLength="29.9736" x="609.6924" y="231.3247">[04]</text><text fill="#000000" font-family="sans-serif" font-size="13" lengthAdjust="spacing" textLength="81.396" x="643.666" y="231.3247">Read Events</text></g><g class="message" data-participant-1="sensord" data-participant-2="container"><polygon fill="#181818" points="1022.6899,261.5234,1032.6899,265.5234,1022.6899,269.5234,1026.6899,265.5234" style="stroke:#181818;stroke-width:1;"/><line style="stroke:#181818;stroke-width:1;" x1="602.6924" x2="1028.6899" y1="265.5234" y2="265.5234"/><text fill="#000000" font-family="sans-serif" font-size="13" font-weight="bold" lengthAdjust="spacing" textLength="29.9736" x="609.6924" y="260.4575">[05]</text><text fill="#000000" font-family="sans-serif" font-size="13" lengthAdjust="spacing" textLength="46.7441" x="643.666" y="260.4575">Trigger</text></g><g class="message" data-participant-1="container" data-participant-2="container"><line style="stroke:#181818;stroke-width:1;" x1="1044.6899" x2="1086.6899" y1="294.6563" y2="294.6563"/><line style="stroke:#181818;stroke-width:1;" x1="1086.6899" x2="1086.6899" y1="294.6563" y2="307.6563"/><line style="stroke:#181818;stroke-width:1;" x1="1045.6899" x2="1086.6899" y1="307.6563" y2="307.6563"/><polygon fill="#181818" points="1055.6899,303.6563,1045.6899,307.6563,1055.6899,311.6563,1051.6899,307.6563" style="stroke:#181818;stroke-width:1;"/><text fill="#000000" font-family="sans-serif" font-size="13" font-weight="bold" lengthAdjust="spacing" textLength="29.9736" x="1051.6899" y="289.5903">[06]</text><text fill="#000000" font-family="sans-serif" font-size="13" lengthAdjust="spacing" textLength="59.2808" x="1085.6636" y="289.5903">Compute</text></g><path d="M353.2603,322.6563 L417.7031,322.6563 L417.7031,329.7891 L407.7031,339.7891 L353.2603,339.7891 L353.2603,322.6563" fill="#90EE90" style="stroke:#000000;stroke-width:1.5;"/><rect fill="none" height="90.2031" style="stroke:#000000;stroke-width:1.5;" width="735.9824" x="353.2603" y="322.6563"/><text fill="#000000" font-family="sans-serif" font-size="13" font-weight="bold" lengthAdjust="spacing" textLength="19.4429" x="368.2603" y="335.7231">alt</text><text fill="#000000" font-family="sans-serif" font-size="11" font-weight="bold" lengthAdjust="spacing" textLength="206.6958" x="432.7031" y="334.8667">[water bodies detection Success]</text><g class="message" data-participant-1="container" data-participant-2="redis"><polygon fill="#181818" points="401.4658,356.9219,391.4658,360.9219,401.4658,364.9219,397.4658,360.9219" style="stroke:#181818;stroke-width:1;"/><line style="stroke:#181818;stroke-width:1;stroke-dasharray:2.0,2.0;" x1="395.4658" x2="1033.6899" y1="360.9219" y2="360.9219"/><text fill="#000000" font-family="sans-serif" font-size="13" font-weight="bold" lengthAdjust="spacing" textLength="29.9736" x="407.4658" y="355.856">[07]</text><text fill="#000000" font-family="sans-serif" font-size="13" lengthAdjust="spacing" textLength="34.9058" x="441.4395" y="355.856">Write</text><text fill="#000000" font-family="monospace" font-size="13" lengthAdjust="spacing" textLength="273.9331" x="480.4775" y="355.856">acme-water-bodies-detection-success</text><text fill="#000000" font-family="sans-serif" font-size="13" lengthAdjust="spacing" textLength="44.0146" x="758.543" y="355.856">Events</text></g><line style="stroke:#000000;stroke-width:1;stroke-dasharray:2.0,2.0;" x1="353.2603" x2="1089.2427" y1="369.9219" y2="369.9219"/><text fill="#000000" font-family="sans-serif" font-size="11" font-weight="bold" lengthAdjust="spacing" textLength="200.5405" x="358.2603" y="380.1323">[water bodies detection Failure]</text><g class="message" data-participant-1="container" data-participant-2="redis"><polygon fill="#181818" points="401.4658,400.8594,391.4658,404.8594,401.4658,408.8594,397.4658,404.8594" style="stroke:#181818;stroke-width:1;"/><line style="stroke:#181818;stroke-width:1;stroke-dasharray:2.0,2.0;" x1="395.4658" x2="1033.6899" y1="404.8594" y2="404.8594"/><text fill="#000000" font-family="sans-serif" font-size="13" font-weight="bold" lengthAdjust="spacing" textLength="29.9736" x="407.4658" y="399.7935">[08]</text><text fill="#000000" font-family="sans-serif" font-size="13" lengthAdjust="spacing" textLength="34.9058" x="441.4395" y="399.7935">Write</text><text fill="#000000" font-family="monospace" font-size="13" lengthAdjust="spacing" textLength="273.9331" x="480.4775" y="399.7935">acme-water-bodies-detection-failure</text><text fill="#000000" font-family="sans-serif" font-size="13" lengthAdjust="spacing" textLength="44.0146" x="758.543" y="399.7935">Events</text></g><line style="stroke:#A80036;stroke-width:2;" x1="1030.6899" x2="1048.6899" y1="419.8594" y2="437.8594"/><line style="stroke:#A80036;stroke-width:2;" x1="1030.6899" x2="1048.6899" y1="437.8594" y2="419.8594"/><!--SRC=[fPCzRnin38Pt_Gf2wHOS46GC0WzDFvQWAE827feEEecsXUf4HvJi-j-NfyjzE6sdRjOhtlEIhsXJCiNIjPX0txUhxpStFxHIBVq2_JMHArOklc0-KVgfrS6axAq_c9X1Fr08Q3Cb3ORXKDhWUOz9EPDDQnX1Fw7pN6zJ_qjXT23a4HzCtbBg9ZnSRVO-ex8KSw80-kCHnMXD9LbyZX_m4EZSYLIHo6wkN6DaId_KS9MTKYy52ux0zsLe2ezjuSkPxjz5ShXwZXjfQ1leL0jx6-EZp3PDO6psHvEnjZ4T9hz9cMEPf26B6L2xwDk0NgF8GDOMEV4vsdsYI8N3MKqaQ5O30-vWaoGmq5gCipGOcbk1l1JFlYTf3NLYIJumAcbLlgNfuqVF6UEhFFInG1hROJDoRnlE2KtNS7sCnWvlZ-wDnMi0rMO4Fg5nOz5yFuSArzTIzItvtKvYckMBcZjueEvGP3kK2VdgqU_s-ND2Z72I49CyYlF8u31Z3H7MnLfaNlB-abiTiXAQWT1CX8O7mkM4_xBxP7me2V_3RZiG5dPH5icX14_donNivOi5N1p75Ln8Yxycljd29QT_hjy0]--></g></svg>